# xmcd
#
# Track frame offsets:
#	150
#	13906
#	27697
#	45704
#	57685
#	72082
#	85558
#	96085
#	110740
#	130777
#	148945
#	159321
#	171212
#	183832
#	197453
#	209767
#	226685
#	239124
#	248656
#	264602
#
# Disc length: 3675 seconds
#
# Revision: 1
# Processed by: cddbd v1.5.2PL0 Copyright (c) Steve Scherf et al.
# Submitted via: audiograbber 1.83.01
#
DISCID=230e5914
DTITLE=Wanda Jackson - The Famous Wanda Jackson CD3
DYEAR=2012
DGENRE=Country
TTITLE0=Cryin´ Thru The Night
TTITLE1=Crying Time (w. Elvis Costello)
TTITLE2=Dann Kam Johnny
TTITLE3=Das Kommt Vom Glück In Der Liebe
TTITLE4=Day Dreaming
TTITLE5=Der Mond Ist Der Freund Der Verliebten
TTITLE6=Did You Miss Me
TTITLE7=Didn't He Shine
TTITLE8=D-I-V-O-R-C - E
TTITLE9=Doch Dann Kam Johnny
TTITLE10=Don´A Wan´A
TTITLE11=Don´t Ask Me Why
TTITLE12=Don´t Do The Things De' Do
TTITLE13=Don't Let Me Cross Over
TTITLE14=Don't Touch Me
TTITLE15=Don't Worry
TTITLE16=Ein Herz Gewinnt, Ein Herz Verliert
TTITLE17=Every Time They Play Our Song
TTITLE18=Everything Is Beautiful
TTITLE19=Everything Is Leaving
EXTD=
EXTT0=
EXTT1=
EXTT2=
EXTT3=
EXTT4=
EXTT5=
EXTT6=
EXTT7=
EXTT8=
EXTT9=
EXTT10=
EXTT11=
EXTT12=
EXTT13=
EXTT14=
EXTT15=
EXTT16=
EXTT17=
EXTT18=
EXTT19=
PLAYORDER=
